#!OML:ASF F:\VICON\USERDATA\INSTALL\rory3\rory3.ASF
:FULLY-SPECIFIED
:DEGREES
606
root 2.59775 30.3624 -3.1549 -159.591 -32.5033 176.094
lowerback 9.30999 -3.21625 -4.84253
upperback 0.949615 -4.80049 0.738968
thorax -3.75994 -2.32822 4.06426
lowerneck -20.9218 -3.26579 -12.7012
upperneck 29.9077 -2.47049 3.65268
head 13.9271 -2.39561 3.0916
rclavicle 7.40473e-014 3.77691e-015
rhumerus -35.5704 -2.66263 -78.7542
rradius 86.1592
rwrist -15.9984
rhand -27.2054 19.4169
rfingers 7.12502
rthumb -0.618502 -10.5619
lclavicle 7.40473e-014 3.77691e-015
lhumerus 3.26047 -23.0119 89.7794
lradius 82.8504
lwrist 14.5578
lhand -17.8396 26.969
lfingers 7.12502
lthumb 8.42511 56.7809
rfemur -17.4982 -2.45502 20.2163
rtibia 6.84401
rfoot 2.59366 -28.446
rtoes 27.4694
lfemur -63.7852 12.6712 -36.8585
ltibia 77.6474
lfoot -26.995 -14.4294
ltoes 4.99621
607
root 2.55566 30.4323 -3.18072 -159.502 -32.2927 176.071
lowerback 9.23983 -3.30232 -4.84787
upperback 0.822471 -4.91237 0.689136
thorax -3.84624 -2.37654 4.02784
lowerneck -21.0518 -3.3329 -12.9769
upperneck 29.5567 -2.4137 3.72071
head 13.8063 -2.36408 3.17174
rclavicle 7.32522e-014 1.98785e-015
rhumerus -36.1816 -2.63839 -78.8519
rradius 85.8469
rwrist -15.0772
rhand -27.02 19.3034
rfingers 7.12502
rthumb -0.439382 -10.6759
lclavicle 7.32522e-014 1.98785e-015
lhumerus 2.6688 -23.0502 89.6719
lradius 82.477
lwrist 14.388
lhand -18.0433 26.8526
lfingers 7.12502
lthumb 8.22857 56.6724
rfemur -17.8148 -2.28331 19.8122
rtibia 7.3109
rfoot 3.10314 -29.041
rtoes 26.8633
lfemur -63.065 12.6816 -36.8628
ltibia 76.6828
lfoot -27.1656 -14.1592
ltoes 4.74211
608
root 2.52206 30.4953 -3.21437 -159.739 -32.0478 176.291
lowerback 9.24774 -3.25618 -4.84375
upperback 0.835798 -4.85264 0.6623
thorax -3.84549 -2.34774 3.9913
lowerneck -21.3821 -3.43598 -12.8592
upperneck 29.3371 -2.42847 3.48875
head 13.7816 -2.36382 3.05239
rclavicle -1.80894e-014 -9.34288e-015
rhumerus -36.5134 -2.96713 -78.9415
rradius 85.3345
rwrist -14.0833
rhand -26.5809 19.0278
rfingers 7.12502
rthumb -0.0152682 -10.9519
lclavicle -1.80894e-014 -9.34288e-015
lhumerus 2.21464 -23.3914 89.4673
lradius 82.1581
lwrist 14.2856
lhand -18.2952 26.8376
lfingers 7.12502
lthumb 7.98545 56.6668
rfemur -18.0776 -1.97763 19.6825
rtibia 8.1104
rfoot 4.31967 -29.1106
rtoes 25.9571
lfemur -62.2473 12.8982 -36.5881
ltibia 75.7788
lfoot -27.2929 -14.0026
ltoes 4.67749
609
root 2.49782 30.5544 -3.25746 -159.94 -31.5991 176.402
lowerback 9.28173 -3.18698 -5.16462
upperback 0.761933 -4.79706 0.641354
thorax -3.9231 -2.31043 4.1482
lowerneck -21.5132 -3.4794 -12.8207
upperneck 29.1781 -2.41766 3.36112
head 13.7395 -2.35857 2.99404
rclavicle -2.43511e-014 -3.97569e-016
rhumerus -36.6075 -3.0232 -78.9859
rradius 84.2534
rwrist -13.0723
rhand -26.1696 19.3224
rfingers 7.12502
rthumb 0.381919 -10.657
lclavicle -2.43511e-014 -3.97569e-016
lhumerus 1.56077 -23.5866 89.3387
lradius 81.8256
lwrist 14.0981
lhand -18.5785 26.3383
lfingers 7.12502
lthumb 7.71198 56.1776
rfemur -18.5123 -1.49766 19.4597
rtibia 9.28008
rfoot 5.25752 -28.6788
rtoes 25.7047
lfemur -61.4833 13.3076 -36.4423
ltibia 74.8847
lfoot -27.3223 -14.0292
ltoes 5.2212
610
root 2.47427 30.6181 -3.29922 -160.082 -31.1785 176.464
lowerback 9.2837 -3.09048 -5.53029
upperback 0.684141 -4.70958 0.600954
thorax -3.98932 -2.25666 4.30421
lowerneck -21.585 -3.59137 -12.7738
upperneck 28.902 -2.56152 3.41008
head 13.651 -2.38489 2.9777
rclavicle 1.12313e-013 -1.51076e-014
rhumerus -36.7401 -3.15625 -78.9451
rradius 83.1185
rwrist -11.9178
rhand -25.8872 20.4428
rfingers 7.12502
rthumb 0.654722 -9.53592
lclavicle 1.12313e-013 -1.51076e-014
lhumerus 0.978694 -23.8876 89.2348
lradius 81.4604
lwrist 13.9688
lhand -18.7289 26.0287
lfingers 7.12502
lthumb 7.56682 55.8733
rfemur -18.8794 -1.03669 19.2635
rtibia 10.4303
rfoot 6.18971 -27.7585
rtoes 24.2684
lfemur -60.7061 13.6782 -36.3139
ltibia 73.9852
lfoot -27.271 -14.4116
ltoes 6.73532
611
root 2.44687 30.6946 -3.3327 -160.278 -30.7838 176.659
lowerback 9.25728 -3.0064 -5.72176
upperback 0.616941 -4.61696 0.588318
thorax -4.04145 -2.20341 4.38899
lowerneck -21.6482 -3.66006 -12.6469
upperneck 28.5013 -2.61877 3.33081
head 13.4973 -2.37526 2.91093
rclavicle 9.47209e-014 2.3059e-014
rhumerus -36.9071 -3.22989 -78.9035
rradius 82.2281
rwrist -10.3688
rhand -25.8243 20.6409
rfingers 7.12502
rthumb 0.715485 -9.33766
lclavicle 9.47209e-014 2.3059e-014
lhumerus 0.440278 -24.1263 89.1669
lradius 81.097
lwrist 13.8128
lhand -18.738 26.0093
lfingers 7.12502
lthumb 7.55804 55.8543
rfemur -19.1267 -0.996691 19.3909
rtibia 11.6939
rfoot 7.57725 -26.1771
rtoes 21.3064
lfemur -59.9244 14.0029 -36.0894
ltibia 73.0741
lfoot -27.3215 -14.6161
ltoes 7.53691
